<svg width="60" height="60" viewBox="0 0 60 60" fill="none" xmlns="http://www.w3.org/2000/svg">
<path fill-rule="evenodd" clip-rule="evenodd" d="M54.3803 45.2366C55.1234 43.972 55.8024 40.9835 55.8803 42.2552C55.968 43.6721 55.3354 46.5146 53.0082 49.2855C51.7271 50.8115 50.7998 51.563 49.9027 52.2962C49.4692 52.6503 49.1231 52.9186 48.85 53.1155C48.85 53.1155 46.7919 54.8108 45.2211 55.5755C44.0475 56.2773 42.4371 57.2659 40.643 57.8948C34.6378 60.0003 33.8925 57.5537 33.8461 55.7991C33.8229 54.9748 33.0191 55.4667 32.7758 56.8157C32.5377 58.1394 33.2847 59.5123 32.8041 59.6439C31.6681 59.95 30.6289 59.9993 30.6059 60.0003C30.2251 60.0003 30.1804 59.5994 30.1391 58.9505V54.1683C30.1404 53.9044 31.5991 54.5651 33.1527 53.804C33.7436 53.5144 34.4141 54.2874 35.6586 54.1038C36.511 53.978 37.107 53.6252 37.9926 53.0657C38.3667 52.8307 38.9962 53.3878 39.3852 53.5931C40.0592 53.9491 42.4936 55.155 44.3207 54.9417C44.3637 54.9301 45.7547 54.4252 45.6537 53.72C45.6057 53.3757 47.1086 53.8394 48.1713 52.9671C49.338 52.0089 49.8176 50.6022 49.8178 50.0755C49.8178 49.7113 50.34 50.333 50.4096 50.2337C51.5779 48.5554 51.8211 46.5458 51.6225 45.6321C51.5552 45.3262 52.5846 45.4412 52.7914 46.8958C52.832 47.176 53.6309 46.5105 54.3803 45.2366ZM28.2533 0.00128644C28.5212 -0.0184663 28.7491 0.191727 28.7494 0.461247C28.7527 1.0935 28.7582 2.29884 28.7582 3.86945C28.7582 4.12436 28.6967 6.08939 28.4418 6.09601C22.4763 6.23673 13.3892 9.15032 10.3285 12.8001C9.19466 14.1541 7.56549 18.4958 7.31387 23.2083C6.88185 31.2992 8.32733 36.3458 10.3285 38.2611C11.8646 39.7326 17.9245 42.1648 18.474 42.3138C19.2084 42.5123 19.0515 42.8496 18.9506 43.1292C18.7008 43.8158 14.4562 46.6936 14.1557 46.5267C13.2024 45.9806 14.8894 45.2024 14.7182 44.762C14.2829 43.6448 11.9028 44.4687 11.2504 45.0579C10.355 45.8656 10.0469 47.635 11.1557 48.6497C12.3556 49.7487 14.4511 49.3241 15.5453 48.9798C15.9575 48.849 18.4309 48.6186 18.6957 48.8851C19.4603 49.6531 18.5551 51.209 19.0434 53.1058C19.5315 55.0006 28.7879 53.5983 28.7924 54.1302C28.7924 54.88 28.7845 59.8051 28.5941 59.8978C27.9153 60.2287 24.8998 59.6624 24.1068 59.5696C18.8894 58.9605 10.8559 54.3969 7.17129 50.7122C4.68834 48.2291 0.471295 41.2306 0.0492166 31.8538C-0.722097 14.7203 7.63989 5.6059 20.392 1.37336C23.5502 0.32557 26.8083 0.108879 28.2533 0.00128644ZM26.1264 56.0941C25.2971 56.1685 24.5375 57.279 25.3187 58.0355V58.0374C26.0652 58.7599 27.0261 57.4611 26.9369 56.7659C26.8939 56.4316 26.5302 56.0578 26.1264 56.0941ZM14.7064 53.5931C14.2911 53.4872 14.0824 53.7101 14.3568 53.9153C16.0469 55.1783 17.4741 55.8074 19.2006 56.6185C19.7421 56.8718 22.7333 57.8744 23.3109 57.1263V57.1282C23.9842 56.256 22.2577 55.577 20.4701 55.0374C19.8344 54.8454 16.8963 54.1542 14.7064 53.5931ZM37.9203 45.762C38.5559 44.4098 42.0912 44.669 42.1811 46.1204C42.2489 47.2146 41.2224 49.8306 44.4965 52.9739C46.0188 54.4352 42.9633 53.6209 42.101 53.1624V53.1644C40.9456 52.5503 39.7623 51.7631 38.7377 49.9837C38.1021 48.878 37.3264 47.0249 37.9203 45.762ZM30.3588 46.6058C30.8636 45.8311 32.4905 45.8262 32.7289 47.0296C33.0219 48.5045 33.1844 51.608 32.557 52.7005C32.0754 53.5379 30.4636 53.3047 30.1752 52.4261C29.8706 51.4975 29.94 47.2481 30.3588 46.6058ZM33.9936 45.8275C34.5267 44.9553 36.3264 44.8979 36.6293 46.222C37 47.8443 37.2793 51.3799 36.6205 52.6097C36.1171 53.5495 34.3267 53.3443 33.9789 52.3812C33.6114 51.3632 33.5499 46.5508 33.9936 45.8275ZM27.0512 45.9407C27.3177 45.7388 27.6376 45.9538 27.4721 46.222C26.656 47.5445 25.0339 49.8597 24.102 51.1028C23.8106 51.4918 22.2182 53.0113 21.4203 52.3128C20.4904 51.4985 21.2728 50.595 22.3783 49.6351C22.7706 49.2941 25.6473 47.0069 27.0512 45.9407ZM15.5736 50.1468C12.6605 50.1684 10.9836 51.5421 10.6244 52.0023H10.6264C10.1633 52.5962 12.0618 51.4392 13.6557 51.3929C14.8837 51.3584 15.9827 52.6586 17.224 51.8724C18.2269 51.2367 16.9359 50.1369 15.5736 50.1468ZM27.6908 47.3372C27.7704 47.162 27.9936 47.2218 28.0316 47.4105C28.265 48.5657 28.172 49.3072 28.0893 50.2308C28.0644 50.5204 27.613 52.3074 26.9047 52.0745C26.0788 51.8014 26.29 50.5472 26.5746 49.7493C26.6756 49.4663 27.2753 48.2592 27.6908 47.3372ZM49.1244 38.0247C50.1175 37.4106 48.8567 39.521 48.4379 40.678C47.5639 43.0865 48.2422 45.1594 48.5004 46.7816C49.0497 48.812 48.6247 50.1507 48.3334 50.5648C47.2227 52.1422 45.951 52.4044 44.6615 50.8021C43.8273 49.7626 43.8413 48.4331 43.9125 47.5823C44.025 46.2367 44.5245 44.6941 45.0111 43.5189C46.1003 40.887 48.4825 38.42 49.1264 38.0228L49.1244 38.0247ZM6.35195 44.265C6.19467 44.0784 5.93374 44.2459 5.94863 44.4974C6.03806 46.0381 6.40243 46.9257 6.81289 48.0462C6.94292 48.3986 8.10405 50.4441 8.9164 49.8568V49.8587C9.86156 49.1751 9.17746 47.693 8.55508 46.8157C8.33439 46.5024 7.18097 45.2446 6.35195 44.265ZM22.2084 42.8001C24.2875 41.716 28.9447 41.7032 28.9447 42.4564C28.9447 43.3372 28.9994 45.7165 28.3178 45.2073C26.9373 44.1744 23.1531 44.7138 21.2016 45.7269C19.0198 46.8591 13.4458 50.2286 11.6596 47.8538C11.0537 47.0494 11.5336 46.1277 12.06 45.7337C12.5234 45.3878 13.0243 45.4967 12.8207 45.7913C12.5625 46.1657 12.274 47.463 13.684 47.473C15.4072 47.484 18.539 44.717 22.2084 42.8021V42.8001ZM25.393 45.4798C25.6363 45.4368 25.7983 45.6577 25.6361 45.805C24.5551 46.7899 22.1868 48.6415 21.2533 47.8323C20.0367 46.7779 23.6533 45.7794 25.393 45.4798ZM51.5707 31.7991C53.0455 31.4863 55.8247 26.1351 55.934 26.9925L55.9311 26.9944C56.07 28.0739 55.9711 30.6378 55.4018 31.9437C54.7115 33.5243 53.0049 35.5481 54.8314 34.6351C55.381 34.3603 55.8842 35.4924 52.2211 38.1673C51.2044 38.9103 54.9809 39.2552 54.7641 40.9798C54.5306 42.8252 53.4402 45.534 52.8939 44.6527C52.2699 43.6429 50.4901 43.5239 50.6771 44.2142C50.8476 44.8448 51.0032 45.7964 50.348 47.2327C49.8928 48.2309 49.6382 48.2029 49.4975 47.5159C49.3568 46.8273 48.9907 44.8924 49.143 42.9905C49.2952 41.0905 49.8907 39.5031 50.8158 37.6478C52.1036 35.0655 49.0298 36.2772 48.227 37.1048C44.0955 41.3601 39.6198 41.8468 38.3734 41.5257C36.3111 40.9927 36.3311 40.369 36.6225 40.4368C38.4216 40.8521 40.8449 39.6896 39.8373 38.9564C38.836 38.2265 36.6095 36.181 38.2523 36.7152C42.2729 38.0228 45.1152 35.6743 43.8822 38.3489C43.624 38.9068 45.9626 37.4915 46.5072 36.7152C47.7105 34.9987 46.69 33.8862 47.5756 33.4095C49.5431 32.3503 50.5775 30.9936 51.0014 30.2073C51.5789 29.1366 51.1408 31.8889 51.5707 31.7991ZM32.0121 41.9329C34.0794 41.7343 37.1614 42.2409 39.3695 42.39C40.9519 42.4975 43.76 42.2391 43.9389 42.9525C44.1723 43.8893 44.0263 44.0237 43.5463 45.1956C43.0647 46.3672 42.851 44.3965 41.2689 44.1761L41.2699 44.1741C39.6726 43.9525 37.4548 44.9143 36.8158 44.638C34.6905 43.7193 33.0333 45.2241 30.7143 45.2357C30.2196 45.239 29.9896 45.2747 29.9896 44.9007C29.9904 44.8856 30.0604 43.5143 30.0473 42.7884C30.0324 41.981 30.3208 42.0951 32.0121 41.9329ZM10.2152 41.6302C9.38618 41.7051 8.62673 42.8153 9.40761 43.5716V43.5736C10.1541 44.2969 11.1161 42.9973 11.0268 42.3021C10.9837 41.9677 10.6191 41.5938 10.2152 41.6302ZM5.37929 28.555C4.7056 27.1613 3.0601 27.0538 2.44765 28.0189C1.52244 29.4755 2.86796 30.6421 3.39101 30.3011C3.63242 30.1422 3.10993 29.8858 3.34316 29.1263C3.49544 28.6314 3.95175 28.2293 4.40859 28.7142C6.08373 30.4919 1.88993 37.3064 3.37637 40.8255C4.17912 42.7271 6.14161 43.055 7.31191 42.0804C8.76689 40.8671 9.2008 38.0269 7.02578 38.1907C6.35891 38.2422 6.25005 38.7776 6.58437 38.9183C6.95493 39.076 6.90491 40.7623 5.52676 40.3226C3.22431 39.5893 6.64209 31.1622 5.37929 28.555ZM13.3773 42.1361C13.5058 41.7224 12.7201 41.3388 12.3461 41.764C11.9886 42.1712 12.7404 42.7725 13.0482 42.5755C13.1641 42.5026 13.336 42.2668 13.3773 42.1361ZM21.0775 40.4642C19.1632 38.5476 23.6836 37.3347 23.8061 39.5013C23.8176 39.7115 23.8205 40.1687 23.6947 40.3392C23.0028 41.2792 21.6751 41.0617 21.0775 40.4642ZM17.1186 40.3128C16.084 38.5963 19.8224 38.3859 19.4467 39.97C19.4052 40.139 19.2914 40.4797 19.1674 40.5872C18.522 41.1416 17.4417 40.8488 17.1186 40.3128ZM30.6781 0.00128644C32.1231 0.110532 35.3809 0.327295 38.5424 1.37336C41.5136 2.3599 44.2501 3.60541 46.6801 5.16633C48.6034 6.40115 50.7966 8.2205 51.3842 8.89582C52.498 10.1768 53.1835 10.9496 53.2514 11.5902C53.3622 12.6395 52.9914 14.5974 52.4916 15.1653C52.0116 15.7099 54.2877 15.3873 54.6469 13.1146C54.6783 12.9129 54.8086 12.8301 54.9145 13.0413C55.4508 14.1073 56.9675 17.8042 57.224 18.473L57.2309 18.4691C57.8632 20.1127 59.636 25.1881 58.9193 30.1439C58.9161 30.1652 58.9106 30.1818 58.9057 30.1966C58.9139 30.3075 58.919 30.4159 58.9174 30.5218C58.8776 32.3062 58.5898 35.0008 58.2455 36.8861C58.0502 37.9537 57.7699 38.9321 57.2436 40.1702C56.5684 41.7588 57.4222 39.5132 53.9301 38.3099C53.0727 38.0153 57.0652 35.4859 57.4594 34.304C57.7557 33.4118 55.6303 33.5291 56.059 32.9349C56.9627 31.6851 57.3592 28.9886 57.1605 27.1927C57.0496 25.0756 55.7834 22.4535 55.4457 22.763C55.7039 25.9967 53.717 27.6851 53.3158 28.1556C52.5247 29.084 53.6148 26.131 53.0346 26.7337C52.3708 27.424 50.3862 28.0221 50.8314 27.3997C54.4896 22.2816 52.6105 17.5823 52.2562 18.054C50.4818 20.411 48.7289 20.2386 48.7289 20.2386C49.8147 19.1527 50.5728 15.1625 50.0102 13.1116C49.8314 12.4611 49.815 11.5369 49.2406 10.6165C48.8533 11.3266 48.262 11.9626 47.393 12.2308C44.3559 13.1692 43.3248 13.6907 42.5121 14.6341C41.3138 13.689 44.5605 11.4301 43.0502 11.428C41.0308 11.4247 38.8804 12.1831 36.6127 13.6116C35.5153 14.3035 34.2651 14.9402 33.8314 15.1868C33.2871 15.2991 33.8907 13.4359 33.5961 13.3382C32.7121 13.0461 30.9469 15.382 30.8324 15.8441C30.8192 13.1079 30.1653 10.4493 32.3187 8.51105C32.6134 10.3069 35.2566 10.0011 35.515 11.7073C36.8707 11.3647 38.8259 10.8602 40.0756 8.44855C43.0168 9.31568 44.9185 7.30289 44.9301 6.33625C43.682 7.20521 40.757 6.76137 40.6908 6.60578C39.4909 3.76302 36.1719 3.5209 36.6137 4.17414C37.0953 4.88415 37.6482 6.19687 37.5971 7.1966C37.5325 8.46785 37.3072 9.40327 36.6137 10.0091C36.4612 7.87256 33.8422 7.87734 34.1762 6.19269C34.2523 5.80867 34.2454 5.81338 33.7836 5.97394C33.1579 6.19133 32.568 6.39692 32.0141 6.59113C31.1119 6.90726 30.1918 6.13081 30.1918 5.97687C30.1918 4.28355 30.0811 1.96287 30.182 0.810857V0.461247C30.1823 0.191742 30.4102 -0.0184388 30.6781 0.00128644ZM14.1088 38.098C14.6567 37.7289 16.0423 38.783 15.4135 39.5345C14.7563 40.3207 13.3158 39.6614 13.5326 38.9066C13.6007 38.6681 13.9036 38.2379 14.1088 38.0989V38.098ZM28.432 32.1351C28.5893 31.6669 28.9447 31.7283 28.9447 32.0726V38.1321C28.9447 38.4929 28.8527 38.8541 28.6459 39.1487C28.0897 39.9433 27.119 39.9514 26.058 39.5657C25.421 39.3338 25.064 38.4389 25.5404 37.7025C26.6991 35.9164 27.6358 34.5253 28.432 32.1351ZM29.9877 32.0853C29.9879 31.8123 30.2465 31.5943 30.6635 31.8987C31.3238 32.3805 31.6848 33.3242 32.7143 34.5423C33.1558 35.0635 32.2357 35.1237 32.2406 36.0091C32.7901 35.4646 33.8693 35.1731 34.5463 35.0589C37.4562 34.569 37.4564 41.2423 33.4691 38.8724C33.8433 38.2914 35.8098 38.6882 35.3646 38.0179C35.2207 37.8127 34.5106 37.7496 34.3266 37.7347C33.2688 37.7661 32.8908 38.7336 32.0482 39.2484C31.0254 39.8737 30.0373 39.544 29.9877 38.5989C29.9215 37.3538 29.9877 32.0853 29.9877 32.0853ZM11.7348 37.9915C11.2702 37.4304 11.9137 36.5093 12.4135 36.7571C12.5706 36.8366 12.8343 37.1008 12.9057 37.263C13.0944 37.6934 12.18 38.5278 11.7348 37.9915ZM22.3939 15.1673C24.3155 15.2171 24.2853 17.3193 24.0072 18.6898C24.6213 17.9019 25.7441 17.1373 26.5668 17.763C27.4272 18.4168 26.99 19.4559 26.4984 20.2503C26.995 19.9077 27.638 19.7869 28.1693 20.4622C28.6841 21.1177 28.5394 22.3647 27.8012 22.8265C27.3774 21.8764 25.7571 19.9741 23.6781 19.0521C22.1321 18.3652 18.3401 18.6021 16.1635 19.7044C14.6225 20.5055 13.1456 21.9189 12.5795 24.1517C12.0382 26.282 12.351 29.0898 13.7348 30.8841C16.5736 34.5638 21.5264 35.7637 24.9975 33.2493C25.8433 33.9661 25.7602 35.2759 24.8598 35.7923V35.7903C23.9892 36.2901 23.0212 36.2684 22.432 35.2523C22.7316 37.3826 18.4462 38.0478 18.807 35.2073C18.1185 37.5611 13.6064 36.8216 15.0824 33.3177C14.5856 34.2593 12.687 34.5054 11.7602 33.3948C10.471 31.8506 11.1161 29.8626 12.0893 29.5892C9.27221 30.3784 7.42691 25.832 10.977 25.14C9.40653 24.9146 8.9734 22.906 9.45156 21.8069C10.2609 19.9482 12.0182 20.1927 13.5277 20.8216C11.2256 17.6039 16.1398 15.9271 16.5141 18.7689C15.9283 14.3082 20.3598 15.1473 20.393 18.2972C20.3797 17.0177 20.6675 15.1226 22.3939 15.1673ZM10.5092 35.5403C10.8832 35.1152 11.6707 35.4988 11.5404 35.9124C11.499 36.0432 11.3262 36.2764 11.2103 36.3509C10.9025 36.5478 10.1516 35.9475 10.5092 35.5403ZM48.2055 13.9935C46.8284 16.8057 49.1326 19.133 46.8285 21.8675C47.9557 21.8526 50.5898 20.4161 50.5717 21.1194C50.5485 22.0149 50.876 26.7407 47.7826 29.0052C47.1735 29.4505 50.6578 28.8582 50.3549 29.3548C49.5272 30.7072 46.7157 32.8291 45.9096 32.6536C46.234 33.4896 45.9857 35.5449 44.9164 35.9769C44.0734 34.3638 40.4058 36.6673 37.266 35.3548C36.0663 34.8534 35.2484 34.0955 35.2133 33.6204C44.3884 37.1031 50.066 26.1136 44.8949 21.0716C43.5061 19.5736 40.7257 18.0243 37.1918 18.6351C32.6798 19.4147 30.5627 23.832 30.723 22.5052C30.9382 20.7326 31.7605 17.4155 32.8363 16.5726C33.2187 16.273 33.33 17.7497 33.6098 18.2132C35.121 15.7949 36.7514 14.7353 39.6547 14.3695H39.6596C40.7354 14.2337 38.7432 15.8969 38.5824 17.5091C39.4847 16.4039 42.3408 17.4064 43.5492 16.9466C45.35 16.2614 46.1268 13.9938 48.2055 13.9935ZM16.6908 20.8499C21.4943 17.6355 26.8031 20.6575 27.765 25.7786C28.399 29.157 25.8928 31.5067 23.1186 32.8392C19.9322 34.3701 16.5005 32.6371 14.5853 29.8431C13.1535 27.7574 12.1809 23.8658 16.6898 20.8499H16.6908ZM31.2377 25.7796C32.1994 20.6582 37.5083 17.637 42.3119 20.8499C46.8187 23.8658 45.8455 27.7559 44.4154 29.8431H44.4174C42.5023 32.6371 39.0688 34.3701 35.8842 32.8392C33.1101 31.5067 30.604 29.1578 31.2377 25.7796ZM21.1176 29.762C20.5483 30.1195 19.7719 30.5622 19.6127 30.6849C19.1642 31.0307 18.5933 31.6848 18.9701 32.2376C19.2944 32.7124 20.1945 31.8517 20.3129 31.6888C20.6902 31.1724 21.0094 30.7714 21.2875 29.9671V29.9652C21.3322 29.8344 21.2252 29.6942 21.1176 29.762ZM38.3949 20.138C37.5871 19.8338 34.8698 23.0871 34.2885 24.2493C33.8879 25.0521 33.8014 22.5694 33.2982 23.306C33.0268 23.7049 32.8085 24.1421 32.6596 24.6155L32.6615 24.6175C31.2696 29.0402 34.4774 31.8011 37.4535 31.8011C40.4296 31.8009 43.0251 29.4601 43.0482 27.7503C43.0519 27.4052 40.2073 28.6654 40.6078 28.2054C43.0212 25.4245 42.513 22.6824 42.2631 22.3646C42.1572 22.2305 41.5004 22.4253 40.7953 23.0872C39.8404 23.9859 38.7977 25.4229 38.9281 25.056C39.1549 24.417 38.8683 20.3168 38.3949 20.138ZM25.1 25.4944C23.7626 24.1157 21.0849 25.193 21.0102 27.0716C20.9224 29.3476 23.2494 30.5856 24.7475 29.4749V29.4739C26.0485 28.5089 26.5219 26.9594 25.1 25.4944ZM33.8988 25.4944C35.2362 24.1157 37.9149 25.193 37.9896 27.0716C38.0774 29.3475 35.7504 30.5855 34.2523 29.4749C32.9531 28.51 32.4774 26.9612 33.8988 25.4964V25.4944ZM17.8168 27.4075C17.0934 27.3761 15.9989 27.5486 15.9145 28.3978H15.9164C15.8437 29.1274 17.4297 29.0235 17.6791 28.9622C18.4719 28.7669 19.1145 28.6361 20.0463 28.0784C20.1969 27.9874 20.2068 27.7601 20.0463 27.7386C19.1955 27.6211 18.0733 27.4191 17.8168 27.4075ZM18.3578 23.4124C17.6063 22.7222 16.3108 21.8963 15.6205 22.6859L15.6186 22.6868C15.026 23.3638 16.8022 24.7066 17.1117 24.8704C18.0998 25.3951 18.8794 25.8471 20.2729 26.1302C20.5012 26.1749 20.6718 25.9549 20.515 25.7845C19.6841 24.889 18.6243 23.6574 18.3578 23.4124ZM5.39687 15.1243C4.22184 15.0986 3.50039 19.0652 3.4623 19.6761C3.33816 21.6292 3.19393 23.2133 3.59609 25.4378C3.66065 25.8003 4.03309 25.779 4.16054 25.3685C4.83575 23.2055 5.80856 20.3427 5.97109 19.6946C6.4296 17.8738 6.76413 15.1558 5.39687 15.1243ZM21.1703 20.4222V20.4212C20.4688 20.5141 20.9141 21.983 21.0268 22.2034C21.3843 22.9069 21.6471 23.4818 22.3754 24.2366C22.4946 24.3607 22.7096 24.3206 22.6947 24.1634C22.6186 23.3374 22.5643 22.2368 22.518 21.9935C22.3889 21.3082 21.988 20.3146 21.1703 20.4222ZM17.1029 10.7396C16.224 9.12735 18.5552 8.47659 19.9887 9.17511C21.1405 9.73624 21.5675 11.3548 20.3861 12.6292C18.1996 14.9863 11.5186 14.1227 10.7338 16.0228C10.5203 16.5409 10.9857 16.7532 11.4193 16.6986C12.083 16.6157 12.0998 16.1254 12.3051 16.2562C12.7485 16.5394 12.3159 17.9758 10.8793 17.7689C9.92776 17.6312 9.44105 16.3339 10.2768 15.3343C11.841 13.4638 19.489 13.1757 19.2572 11.1546C19.1181 9.94315 17.7172 10.2233 17.8148 10.8275C17.8608 11.1103 17.371 11.2327 17.1029 10.7396ZM25.433 7.33136C26.6677 6.99733 27.6856 10.1929 27.7816 10.7591C28.0862 12.565 28.2149 15.0202 28.3539 16.8509C28.3818 17.2214 27.9254 17.2854 27.7533 16.9329C26.8479 15.0741 25.3702 12.0041 25.14 11.4378C24.4928 9.84544 23.9946 7.72201 25.433 7.33136ZM22.5229 11.9739C23.4812 10.882 25.3171 13.4603 25.9164 15.1204C26.0008 15.3505 25.7903 15.602 25.6049 15.4945C24.3733 14.776 21.5595 13.0697 22.5229 11.9739ZM6.98281 13.3909C6.75432 12.9757 6.14254 13.3664 6.12929 13.6859C6.12444 13.8364 6.27452 14.0543 6.37051 14.1273C6.67177 14.3557 7.22117 13.8227 6.98281 13.389V13.3909ZM8.0873 10.888C7.56755 10.6976 7.03141 11.6765 7.55117 12.178C8.04771 12.6572 8.71573 11.7901 8.62636 11.3333C8.56006 10.996 8.25117 10.9475 8.0873 10.888ZM11.6049 8.12531C10.8252 7.60556 8.69127 8.49323 9.20937 9.83234C9.75072 11.2325 11.6706 10.6846 12.0248 9.53254C12.1721 9.05258 11.9259 8.3406 11.6049 8.12531ZM22.6371 9.68C23.0111 9.25495 23.7968 9.63844 23.6684 10.0521C23.627 10.1828 23.4541 10.417 23.3383 10.4915C23.0301 10.6876 22.2797 10.087 22.6371 9.68ZM13.602 6.61457C13.1386 6.44457 12.6627 7.31618 13.1244 7.76301C13.5662 8.19127 14.1928 7.41102 14.0824 7.01203C14.0212 6.79188 13.7476 6.66754 13.602 6.61457ZM24.933 1.25129C21.8164 1.4317 18.5256 6.92318 16.5922 6.34308C16.0642 6.18585 16.1765 5.70924 16.476 5.42121C16.9327 4.98107 17.3211 5.26674 17.3412 5.03547C17.3842 4.53398 16.0195 3.97277 15.3275 5.1673V5.16633C14.8692 5.95746 15.5853 7.11381 16.8529 7.10578C19.2249 7.08923 23.9795 1.58446 25.4047 2.9964C26.2582 3.84043 25.1209 4.50193 24.8031 4.26691C24.3549 3.93482 24.2279 4.34663 24.4496 4.84797C25.1762 6.48821 27.0578 5.1563 27.3676 3.6634C27.6175 2.4634 26.6179 1.1538 24.933 1.25129Z" fill="white"/>
</svg>
