<svg width="250" height="51" viewBox="0 0 250 51" fill="none" xmlns="http://www.w3.org/2000/svg">
<path d="M161.436 6.88281C163.501 6.88281 165.157 7.37676 166.405 8.36133C167.651 9.34281 168.275 10.6538 168.275 12.2969C168.275 13.6756 167.887 14.7876 167.117 15.6416C166.344 16.4956 165.334 16.9237 164.089 16.9238C163.039 16.9238 162.185 16.7128 161.529 16.2842C160.871 15.8587 160.345 15.2193 159.954 14.3652C159.33 13.0514 158.507 12.3955 157.494 12.3955C156.575 12.3957 155.805 13.1009 155.181 14.5137C157.346 15.3678 159.035 16.6296 160.249 18.3037C161.46 19.9778 162.066 21.9281 162.066 24.1582C162.066 25.767 161.749 27.2234 161.109 28.5371C160.47 29.8447 159.56 30.9791 158.38 31.9326C157.197 32.883 155.789 33.6216 154.146 34.1465C152.503 34.6714 150.686 34.9326 148.683 34.9326C146.931 34.9326 145.586 34.6714 145.559 34.666C145.559 34.666 144.154 34.405 143.102 35.4766C141.306 37.306 142.425 40.2537 144.596 40.5332C148.245 41.0051 151.196 39.1223 152.345 38.3086C157.944 34.3417 162.904 34.0349 162.948 34.0322H162.961C170.167 33.5042 170.894 40.8496 170.894 40.8496C171.564 44.3469 168.511 48.1053 163.69 48.0742C161.942 48.0615 159.706 46.3347 160.054 44.0615C160.579 40.6109 166.064 40.9023 165.918 38.4736C165.607 37.2499 164.495 37.0852 163.858 37.0977C163.619 37.1039 163.383 37.1446 163.153 37.2129C161.597 37.685 160.361 38.5077 158.867 40.1289C156.684 42.5019 154.755 45.4654 152.282 47.5371C145.258 53.4193 138.869 49.157 138.815 49.1211C136.663 47.6023 134.809 44.8656 134.511 41.3994C134.327 39.2782 134.923 37.0325 136.038 35.2031C136.374 34.6503 137.694 33.2494 138.747 32.5381C139.527 32.0102 139.666 32.2308 138.874 31.6221C137.908 30.8829 137.178 29.9353 136.585 28.9072C135.762 27.4785 135.355 25.8975 135.355 24.1582C135.355 22.6178 135.69 21.1828 136.364 19.8535C137.035 18.5242 137.967 17.3871 139.166 16.4336C140.365 15.4801 141.778 14.7348 143.399 14.1943C145.024 13.6539 146.789 13.3809 148.689 13.3809C149.935 13.3809 151.115 13.4801 152.233 13.6758C153.184 11.5761 154.448 9.92049 156.022 8.70605C157.597 7.49174 159.37 6.88289 161.436 6.88281ZM68.1016 13.5361C70.2632 13.5361 72.5117 13.8339 74.251 14.4395C75.9902 15.0482 77.4752 15.9116 78.7051 17.0234C79.935 18.1416 80.8856 19.4868 81.5596 21.0615C82.2273 22.6331 82.5693 24.3881 82.5693 26.3262V29.4727C82.5694 30.162 82.6559 30.8576 82.8359 31.5625C83.0161 32.2706 83.2212 32.9602 83.4541 33.6279C83.6808 34.3019 83.8863 34.9265 84.0664 35.498C84.2465 36.0757 84.3398 36.5913 84.3398 37.0479C84.3398 38.1317 83.7463 38.6718 82.5693 38.6719H74.5498C73.4008 38.6719 72.5808 38.492 72.0869 38.1318C71.5962 37.7715 71.3193 37.1282 71.251 36.2119C70.4776 37.6251 66.3184 39.0603 63.2715 39.2188C56.3609 39.5758 55.3115 34.7366 55.3115 32.7705C55.3117 26.18 60.6694 24.5835 65.3252 23.2666C68.2043 22.4529 71.251 22.335 71.251 22.335C71.2386 20.8597 71.3225 20.7508 71.0244 19.1826C70.953 18.813 70.8067 18.26 70.5303 17.8779C70.0985 17.2816 69.201 16.7598 67.4834 16.8281C66.1945 16.8778 65.027 17.5955 64.707 17.8564C64.2617 18.2219 64.9065 18.9544 64.9209 18.9707C66.2068 20.5734 65.1132 21.6301 63.3086 22.4688C63.2562 22.4908 58.7282 24.3791 57.8203 20.8125C57.4075 19.1975 57.9859 17.458 59.2344 16.3555C61.7782 14.1071 66.1698 13.5361 68.1016 13.5361ZM181.056 13.4824C183.286 13.4824 185.32 13.7908 187.159 14.415C188.995 15.0393 190.579 15.9153 191.905 17.0459V17.0488C193.235 18.1825 194.26 19.5337 194.98 21.1084C195.701 22.683 196.064 24.4224 196.064 26.3262C196.064 28.2301 195.701 29.9663 194.98 31.541C194.26 33.1126 193.235 34.4669 191.905 35.6006C190.579 36.7342 188.995 37.6103 187.159 38.2314C185.32 38.8557 183.224 39.1689 181.056 39.1689C178.888 39.1689 176.9 38.8497 175.077 38.21C173.254 37.5733 171.673 36.6753 170.328 35.5293C168.983 34.3801 167.933 33.0191 167.182 31.4443C166.424 29.8666 166.048 28.1647 166.048 26.3262C166.048 24.4874 166.424 22.7818 167.182 21.207C167.933 19.6324 168.983 18.2722 170.328 17.123C171.673 15.9738 173.254 15.0793 175.077 14.4395C176.9 13.7997 178.826 13.4825 181.056 13.4824ZM109.044 13.9238C111.47 13.9238 113.404 14.5888 114.849 15.918V15.9082C116.29 17.2376 117.039 18.9992 117.011 21.1982C116.943 26.4092 112.358 27.2614 112.324 27.2676C112.324 27.2676 106.978 28.2328 105.845 24.7324C105.531 23.7696 106.081 22.257 106.071 21.2725C106.072 21.2513 106.095 19.2022 104.019 19.4277C103.401 19.4961 102.814 19.6703 102.273 20.1455C101.733 20.6206 101.279 21.3004 100.919 22.1885C100.559 23.0737 100.27 24.1304 100.059 25.3604C99.8754 26.4162 99.7817 27.0964 99.7568 28.3262C99.7444 28.9443 99.7855 29.96 99.8477 30.5781L100.071 32.833C100.161 33.7213 100.459 34.5756 100.969 35.3086C100.978 35.3219 101.485 36.0874 101.516 37.0449C101.55 38.1288 100.921 38.6689 99.7412 38.6689H90.6602C89.4768 38.6689 86.4112 39.222 86.6533 37.0449C86.7527 36.1535 87.2654 35.7678 87.6475 35.0752C88.6846 33.1992 88.3987 30.2611 88.4111 29.0654C88.4115 29.045 88.4814 24.5189 88.0166 21.8135C87.9358 21.3538 87.6096 20.4959 87.3301 20.1201C86.5104 19.0178 86.392 18.6854 86.2988 17.8564C86.1528 16.5613 87.3768 15.5421 89.0137 15.2471L95.8066 14.0664C96.0022 14.0354 96.192 14.0106 96.3721 13.9951C96.5521 13.9796 96.7232 13.9678 96.8877 13.9678C98.7883 13.9679 99.7412 14.9057 99.7412 16.7754V18.1855C99.7414 18.2909 99.8723 18.3345 99.9375 18.2539C101.043 16.8966 102.342 15.8499 103.826 15.1045C105.401 14.3156 107.137 13.9238 109.044 13.9238ZM128.845 13.918C130.746 13.918 131.699 14.8558 131.699 16.7256V18.1357C131.573 21.1279 131.664 24.7093 131.665 24.751C131.653 25.3721 131.745 29.9097 131.808 30.5283L132.031 32.7832H132.028C132.118 33.6715 132.416 34.5258 132.926 35.2588C132.926 35.2588 133.442 36.0292 133.473 36.9951C133.507 38.079 132.879 38.6191 131.699 38.6191H122.617C121.434 38.6192 118.368 39.1722 118.61 36.9951C118.71 36.1037 119.222 35.718 119.604 35.0254C120.642 33.1494 120.356 30.2113 120.368 29.0156C120.369 28.981 120.439 24.4648 119.975 21.7637C119.894 21.304 119.568 20.4461 119.288 20.0703C118.468 18.9679 118.35 18.6357 118.257 17.8066C118.111 16.5116 119.334 15.4924 120.971 15.1973L127.764 14.0176C127.959 13.9865 128.149 13.9608 128.329 13.9453C128.509 13.9298 128.68 13.918 128.845 13.918ZM208.003 4.40723C209.904 4.40723 210.857 5.34518 210.857 7.21484V8.625C210.73 11.6347 210.823 15.2412 210.823 15.2412C210.811 15.8645 210.905 29.9099 210.967 30.5283L211.19 32.7832H211.187C211.277 33.6714 211.575 34.5258 212.084 35.2588C212.084 35.2588 212.6 36.0292 212.631 36.9951C212.665 38.079 212.038 38.6191 210.857 38.6191H201.775C200.592 38.6193 197.527 39.1721 197.77 36.9951C197.869 36.1037 198.381 35.718 198.763 35.0254C199.8 33.1494 199.515 30.2114 199.527 29.0156C199.528 28.959 199.598 14.9591 199.133 12.2529C199.052 11.7934 198.726 10.9365 198.446 10.5605C197.626 9.45793 197.508 9.12519 197.415 8.2959C197.269 7.00071 198.493 5.98159 200.13 5.68652L206.922 4.50684C207.117 4.4758 207.307 4.45108 207.487 4.43555C207.667 4.42003 207.838 4.40724 208.003 4.40723ZM244.974 4.22754C246.874 4.22756 247.828 5.16539 247.828 7.03516V29.4727C247.828 30.1621 247.921 30.8576 248.102 31.5625C248.282 32.2706 248.483 32.9602 248.713 33.6279C248.943 34.2988 249.148 34.9265 249.328 35.498C249.508 36.0757 249.602 36.5913 249.602 37.0479C249.602 38.1318 249.008 38.6718 247.828 38.6719H239.809C238.594 38.6719 237.743 38.4608 237.249 38.0322C236.758 37.6068 236.513 36.871 236.513 35.8184V34.8359C234.214 37.3953 230.95 38.6719 226.723 38.6719C224.915 38.6718 223.241 38.3527 221.7 37.7129C220.16 37.0762 218.815 36.209 217.669 35.1064C216.52 34.007 215.616 32.7027 214.961 31.1934C214.306 29.6871 213.976 28.0594 213.976 26.3232C213.976 24.587 214.306 22.9587 214.961 21.4492C215.619 19.9399 216.52 18.6386 217.669 17.5361C218.812 16.4398 220.16 15.5705 221.7 14.9307C223.244 14.2909 224.918 13.9707 226.723 13.9707C230.95 13.9707 234.214 15.2503 236.513 17.8096C236.513 17.8096 237.827 16.8188 236.864 15.5859C236.659 15.325 235.808 14.6535 235.572 13.9111C235.2 12.7371 234.997 10.7712 234.889 10.1562C234.786 9.59097 234.64 8.78314 234.64 8.45703C234.64 6.78327 235.463 5.80195 237.1 5.50684L243.893 4.32617C244.088 4.29511 244.278 4.27041 244.458 4.25488C244.638 4.23936 244.809 4.22754 244.974 4.22754ZM10.5166 12.334C13.6598 9.01688 16.5858 14.2099 12.6758 14.999C11.6974 15.1947 11.1443 15.8283 11.0107 16.6172C10.8588 17.524 11.4241 18.3999 12.7129 19.2539C13.2098 18.4309 14.6973 16.2473 17.1602 14.9707C18.5267 14.2626 20.0364 13.9209 21.6514 13.9209C26.2761 13.9209 29.4077 15.9705 31.0508 20.0703C32.1005 18.1698 33.4512 16.6666 35.1064 15.5703C36.7619 14.4708 38.6259 13.9209 40.6914 13.9209C44.1698 13.9209 46.8096 15.0888 48.6172 17.418C50.4186 19.7443 51.3203 23.1424 51.3203 27.6025V29.4727C51.3203 30.162 51.4096 30.8576 51.5928 31.5625C51.7667 32.2706 51.9753 32.9602 52.2051 33.6279L52.208 33.6221C52.4347 34.296 52.6431 34.9207 52.8232 35.4922C53.0033 36.0697 53.0898 36.5855 53.0898 37.042C53.0897 38.1256 52.5001 38.6659 51.3203 38.666H41.7783C40.5982 38.666 40.005 38.1257 40.0049 37.042V25.5771C40.0048 21.4776 38.9706 19.4279 36.9053 19.4277C35.5604 19.4277 34.495 20.1516 33.7061 21.5928C32.9203 23.0401 32.3611 25.0649 32.2803 27.6953V29.4658C32.2803 30.1553 32.3705 30.8516 32.5537 31.5566C32.7276 32.2647 32.9352 32.9543 33.165 33.6221C33.3918 34.2961 33.6001 34.9207 33.7803 35.4922C33.9603 36.0698 34.0479 36.5855 34.0479 37.042C34.0477 38.1257 33.4574 38.666 32.2773 38.666H23.4971C22.3169 38.666 21.7228 38.1257 21.7227 37.042V25.5771C21.7226 21.4775 19.9277 19.4277 17.8623 19.4277C16.3839 19.4278 15.235 20.3068 14.415 22.0615C13.5982 23.8163 13.1846 26.2855 13.1846 29.4658C13.1846 30.1553 13.2779 30.8516 13.458 31.5566C13.6381 32.2648 13.8405 32.9543 14.0703 33.6221C14.3001 34.296 14.5044 34.9207 14.6846 35.4922C14.8647 36.0698 14.958 36.5855 14.958 37.042C14.9579 38.1257 14.3647 38.666 13.1846 38.666H1.86621C0.686392 38.6659 0.0968113 38.1256 0.0966797 37.042C0.0966797 36.5855 0.183226 36.0697 0.363281 35.4922C0.543417 34.9207 0.748514 34.296 0.981445 33.6221C1.20818 32.9543 1.41361 32.2648 1.59375 31.5566C1.7739 30.8516 1.86621 30.1553 1.86621 29.4658V25.5312C1.86621 24.7423 1.76696 24.0148 1.57129 23.3408C1.37566 22.667 1.16452 22.0305 0.931641 21.4219C0.701811 20.8193 0.490589 20.2416 0.294922 19.7012C0.0992928 19.1609 4.74704e-05 18.6608 0 18.2012C0 16.5271 0.354116 15.5109 2.45996 15.25C8.34495 14.5171 9.88594 13.0019 10.5166 12.334ZM181.056 16.9307C180.373 16.9308 179.732 17.1665 179.146 17.6416C178.552 18.1167 178.052 18.7753 177.643 19.6074C177.239 20.4429 176.904 21.4377 176.655 22.5869C176.404 23.736 176.282 24.9814 176.282 26.3262C176.282 27.671 176.407 28.9163 176.655 30.0654C176.904 31.2115 177.236 32.2055 177.643 33.041C178.053 33.8765 178.552 34.5355 179.146 35.0107C179.736 35.4858 180.373 35.7245 181.056 35.7246C181.739 35.7246 182.373 35.4826 182.966 35.0107C183.556 34.5355 184.063 33.8765 184.467 33.041C184.877 32.2025 185.206 31.2114 185.454 30.0654C185.706 28.9163 185.833 27.6709 185.833 26.3262C185.833 24.9814 185.703 23.736 185.454 22.5869C185.206 21.4377 184.877 20.4429 184.467 19.6074C184.06 18.7751 183.553 18.1168 182.966 17.6416C182.373 17.1666 181.739 16.9307 181.056 16.9307ZM232.826 18.4434C229.987 17.7228 225.648 20.3099 225.235 26.3262C225.03 29.3141 226.561 34.7927 230.13 34.793C234.671 34.793 235.892 28.3545 236.041 26.3262C236.206 24.0402 236.171 19.2914 232.826 18.4434ZM71.2451 26.3877C71.2448 25.1738 70.0671 25.5717 69.0547 25.7549C68.0479 25.9383 64.918 26.9634 64.918 30.4385C64.918 31.5318 65.5453 34.0506 67.7285 34.0508C70.5052 34.0508 71.248 32.1058 71.248 31.1709H71.2451V26.3877ZM148.761 16.8252C147.866 16.8252 147.13 17.5081 146.543 18.8682V18.8652C145.956 20.2256 145.664 21.9873 145.664 24.1553C145.664 26.3231 145.956 28.0938 146.543 29.4697C147.13 30.8454 147.866 31.5352 148.761 31.5352C149.546 31.535 150.227 30.8484 150.813 29.4697C151.4 28.0907 151.692 26.2827 151.692 24.1553C151.692 22.0278 151.4 20.2696 150.813 18.8906C150.227 17.5148 149.546 16.8253 148.761 16.8252ZM124.403 0C125.192 2.40632e-05 125.929 0.146364 126.618 0.441406C127.307 0.736449 127.904 1.13725 128.413 1.64648C128.919 2.15578 129.326 2.75498 129.621 3.44434C129.913 4.13386 130.062 4.87648 130.062 5.65918C130.062 6.4418 129.913 7.1747 129.621 7.84863C129.326 8.52251 128.922 9.11871 128.413 9.64355C127.904 10.1684 127.308 10.5821 126.618 10.874C125.929 11.1691 125.192 11.3183 124.403 11.3184C123.614 11.3184 122.878 11.1691 122.188 10.874C121.499 10.5821 120.897 10.1685 120.394 9.64355C119.881 9.1187 119.481 8.52254 119.186 7.84863C118.894 7.17781 118.744 6.44801 118.744 5.65918C118.744 4.87026 118.894 4.13386 119.186 3.44434C119.481 2.75495 119.881 2.15579 120.394 1.64648C120.9 1.13717 121.499 0.736463 122.188 0.441406C122.878 0.143234 123.614 0 124.403 0Z" fill="white"/>
</svg>
