<svg width="175" height="36" viewBox="0 0 175 36" fill="none" xmlns="http://www.w3.org/2000/svg">
<path d="M112.797 4.80859C114.24 4.80866 115.396 5.15395 116.269 5.8418C117.139 6.52747 117.575 7.44303 117.575 8.59082C117.575 9.55438 117.304 10.3319 116.766 10.9287C116.225 11.5254 115.52 11.8252 114.649 11.8252C113.916 11.8251 113.319 11.6774 112.861 11.3779C112.401 11.0807 112.035 10.6336 111.762 10.0371C111.326 9.11933 110.75 8.66133 110.043 8.66113C109.401 8.66113 108.862 9.15331 108.426 10.1406C109.938 10.7374 111.119 11.6184 111.968 12.7881C112.814 13.9577 113.237 15.3208 113.237 16.8789C113.237 18.0031 113.015 19.0215 112.568 19.9395C112.121 20.8529 111.486 21.6454 110.661 22.3115C109.834 22.9755 108.851 23.4917 107.703 23.8584C106.555 24.2252 105.285 24.4072 103.886 24.4072C102.649 24.4072 101.702 24.2207 101.702 24.2207C101.679 24.2166 100.713 24.0476 99.9863 24.7871C98.7321 26.0652 99.5127 28.1246 101.029 28.3203C103.579 28.6502 105.641 27.3352 106.444 26.7666C110.375 23.9823 113.854 23.7783 113.854 23.7783H113.862C118.897 23.4096 119.404 28.542 119.404 28.542C119.873 30.9855 117.74 33.6115 114.372 33.5898C113.15 33.5812 111.588 32.3745 111.831 30.7861C112.198 28.3752 116.029 28.5786 115.928 26.8818C115.711 26.0268 114.934 25.9113 114.489 25.9199C114.322 25.9243 114.157 25.9523 113.996 26C112.909 26.3299 112.046 26.9055 111.002 28.0381C109.476 29.696 108.129 31.7664 106.401 33.2139C101.495 37.3228 97.0317 34.3484 96.9912 34.3213C95.4873 33.2601 94.1917 31.3477 93.9834 28.9258C93.8554 27.4437 94.2718 25.8748 95.0508 24.5967C95.2852 24.2104 96.2077 23.2313 96.9434 22.7344C97.4881 22.3654 97.5856 22.5191 97.0322 22.0938C96.3574 21.5773 95.8471 20.9155 95.4326 20.1973C94.8576 19.199 94.5732 18.0941 94.5732 16.8789C94.5733 15.8026 94.8084 14.7998 95.2793 13.8711C95.748 12.9425 96.3989 12.1485 97.2363 11.4824C98.074 10.8162 99.0615 10.2946 100.194 9.91699C101.329 9.53945 102.562 9.34867 103.89 9.34863C104.76 9.34863 105.585 9.41797 106.366 9.55469C107.03 8.08785 107.914 6.9315 109.014 6.08301C110.114 5.23447 111.354 4.80859 112.797 4.80859ZM47.583 9.45703C49.0934 9.45705 50.6646 9.6657 51.8799 10.0889C53.0951 10.5142 54.1328 11.1176 54.9922 11.8945C55.8514 12.6757 56.5155 13.6157 56.9863 14.7158C57.4528 15.8137 57.6914 17.0397 57.6914 18.3936V20.5928C57.6914 21.0744 57.7521 21.5603 57.8779 22.0527C58.0038 22.5475 58.1468 23.0295 58.3096 23.4961C58.468 23.967 58.6114 24.4034 58.7373 24.8027C58.8631 25.2063 58.9287 25.5668 58.9287 25.8857C58.9286 26.6429 58.5138 27.0205 57.6914 27.0205H52.0879C51.285 27.0205 50.7122 26.8943 50.3672 26.6426C50.0244 26.3908 49.831 25.9418 49.7832 25.3018C49.2426 26.2891 46.3368 27.2917 44.208 27.4023C39.38 27.6518 38.6466 24.2714 38.6465 22.8975C38.6465 18.2924 42.3895 17.176 45.6426 16.2559C47.6435 15.6903 49.7606 15.6064 49.7832 15.6055C49.7745 14.5746 49.8333 14.4983 49.625 13.4023C49.5751 13.1442 49.4732 12.7581 49.2803 12.4912C48.9787 12.0746 48.3512 11.7102 47.1514 11.7578C46.251 11.7925 45.4348 12.2931 45.2109 12.4756C44.8995 12.7312 45.351 13.2443 45.3604 13.2549C46.2587 14.3746 45.4951 15.1123 44.2344 15.6982C44.2344 15.6982 41.0375 17.0485 40.3994 14.542C40.1108 13.4136 40.5144 12.1982 41.3867 11.4277C43.1641 9.85653 46.2332 9.45703 47.583 9.45703ZM126.506 9.41992C128.064 9.41996 129.485 9.63519 130.77 10.0713C132.052 10.5075 133.159 11.1193 134.086 11.9092V11.9121C135.015 12.7042 135.731 13.6479 136.234 14.748C136.738 15.8482 136.992 17.0634 136.992 18.3936C136.992 19.7239 136.738 20.9378 136.234 22.0381C135.731 23.136 135.015 24.082 134.086 24.874C133.159 25.6661 132.052 26.2779 130.77 26.7119C129.485 27.148 128.02 27.3672 126.506 27.3672C124.991 27.3672 123.602 27.1443 122.328 26.6973C121.054 26.2524 119.949 25.625 119.01 24.8242C118.07 24.0213 117.337 23.0708 116.812 21.9707C116.282 20.8683 116.02 19.6783 116.02 18.3936C116.02 17.109 116.282 15.9175 116.812 14.8174C117.337 13.7172 118.07 12.7668 119.01 11.9639C119.949 11.1609 121.054 10.5359 122.328 10.0889C123.602 9.64185 124.948 9.41992 126.506 9.41992ZM76.1895 9.72852C77.8844 9.72852 79.237 10.1932 80.2461 11.1221V11.1152C81.2529 12.044 81.7763 13.2743 81.7568 14.8105C81.7091 18.4651 78.4814 19.0518 78.4814 19.0518C78.4515 19.0571 74.744 19.7162 73.9551 17.2803C73.7361 16.6076 74.1197 15.5512 74.1133 14.8633C74.1133 14.8633 74.1369 13.4159 72.6787 13.5742C72.2469 13.622 71.8366 13.7432 71.459 14.0752C71.0814 14.4072 70.7644 14.8824 70.5127 15.5029C70.261 16.1214 70.0587 16.8594 69.9111 17.7188C69.7831 18.4566 69.7185 18.9326 69.7012 19.792C69.6925 20.2239 69.7203 20.9335 69.7637 21.3652L69.9199 22.9404C69.9829 23.5611 70.1919 24.1578 70.5479 24.6699C70.5527 24.6771 70.908 25.2126 70.9297 25.8828C70.9536 26.6401 70.515 27.0185 69.6904 27.0186H63.3447C62.5179 27.0186 60.3756 27.4041 60.5449 25.8828C60.6144 25.2605 60.9724 24.9913 61.2393 24.5078C61.9641 23.197 61.7648 21.1431 61.7734 20.3076C61.7741 20.2653 61.8214 17.122 61.498 15.2402C61.4415 14.9189 61.2138 14.3201 61.0186 14.0576C60.4457 13.2872 60.363 13.055 60.2979 12.4756C60.1961 11.5708 61.0509 10.8595 62.1943 10.6533L66.9404 9.82812C67.0771 9.80642 67.2101 9.78917 67.3359 9.77832C67.4617 9.76748 67.5814 9.75879 67.6963 9.75879C69.0241 9.75894 69.6904 10.4144 69.6904 11.7207V12.7061C69.6905 12.7797 69.7816 12.8103 69.8271 12.7539C70.5997 11.8055 71.5066 11.0736 72.5439 10.5527C73.6441 10.0016 74.8572 9.72857 76.1895 9.72852ZM90.0244 9.72461C91.3524 9.72461 92.0194 10.3794 92.0195 11.6855V12.6709C91.9306 14.7738 91.9951 17.2939 91.9951 17.2939C91.9865 17.7289 92.0523 20.8979 92.0957 21.3301L92.252 22.9062H92.249C92.312 23.5268 92.5211 24.1237 92.877 24.6357C92.8887 24.6535 93.2375 25.1851 93.2588 25.8486C93.2826 26.6059 92.844 26.9833 92.0195 26.9834H85.6738C84.847 26.9834 82.7049 27.3698 82.874 25.8486C82.9435 25.2259 83.3014 24.9565 83.5684 24.4727C84.2932 23.1619 84.0939 21.109 84.1025 20.2734C84.1025 20.2734 84.1527 17.1006 83.8271 15.2061C83.7707 14.885 83.5429 14.2862 83.3477 14.0234C82.7748 13.2531 82.6921 13.0207 82.627 12.4414C82.525 11.5365 83.3798 10.8243 84.5234 10.6182L89.2695 9.79395C89.4062 9.77224 89.5392 9.75499 89.665 9.74414C89.7906 9.73332 89.9096 9.72463 90.0244 9.72461ZM145.334 3.0791C146.662 3.07915 147.328 3.73462 147.328 5.04102V6.02637C147.24 8.11945 147.304 10.6252 147.305 10.6484C147.296 11.0803 147.361 20.8967 147.404 21.3301L147.561 22.9053H147.559C147.622 23.5259 147.83 24.1236 148.186 24.6357C148.195 24.6505 148.546 25.1831 148.567 25.8486C148.591 26.6059 148.153 26.9834 147.328 26.9834H140.982C140.155 26.9835 138.014 27.3696 138.183 25.8486C138.252 25.2258 138.611 24.9566 138.878 24.4727C139.603 23.1619 139.402 21.109 139.411 20.2734C139.411 20.2734 139.461 10.4551 139.136 8.56055C139.079 8.23927 138.851 7.64042 138.656 7.37793C138.083 6.60762 138.001 6.3753 137.936 5.7959C137.834 4.89117 138.689 4.1799 139.832 3.97363L144.578 3.14844C144.715 3.12674 144.848 3.10948 144.974 3.09863C145.099 3.08778 145.219 3.0791 145.334 3.0791ZM171.165 2.95312C172.493 2.95312 173.159 3.6086 173.159 4.91504V20.5928C173.159 21.0744 173.225 21.5603 173.351 22.0527C173.476 22.5475 173.618 23.0295 173.778 23.4961C173.939 23.9648 174.082 24.4035 174.208 24.8027C174.334 25.2063 174.398 25.5668 174.398 25.8857C174.398 26.6429 173.984 27.0205 173.159 27.0205H167.557C166.708 27.0205 166.113 26.8727 165.768 26.5732C165.425 26.2759 165.254 25.7617 165.254 25.0264V24.3398C163.648 26.1281 161.367 27.0205 158.413 27.0205C157.15 27.0205 155.981 26.7966 154.904 26.3496C153.828 25.9047 152.888 25.2997 152.087 24.5293C151.284 23.7612 150.653 22.8494 150.195 21.7949C149.737 20.7424 149.507 19.6047 149.507 18.3916C149.507 17.1785 149.737 16.041 150.195 14.9863C150.655 13.9319 151.284 13.0222 152.087 12.252C152.886 11.4859 153.828 10.8787 154.904 10.4316C155.983 9.98465 157.152 9.76077 158.413 9.76074C161.367 9.76074 163.648 10.6551 165.254 12.4434C165.268 12.4329 166.166 11.7446 165.499 10.8896C165.356 10.7074 164.761 10.2384 164.596 9.71973C164.335 8.89938 164.195 7.52537 164.119 7.0957C164.048 6.70087 163.945 6.13714 163.945 5.90918C163.945 4.73946 164.52 4.05382 165.664 3.84766L170.41 3.02246C170.547 3.00079 170.679 2.9835 170.805 2.97266C170.93 2.96181 171.05 2.95313 171.165 2.95312ZM7.34766 8.61719C9.54376 6.29961 11.5881 9.92801 8.85645 10.4795C8.17284 10.6162 7.7857 11.0591 7.69238 11.6104C7.58629 12.2438 7.98163 12.8555 8.88184 13.4521C9.22915 12.8769 10.2694 11.3518 11.9902 10.46C12.945 9.96527 13.9996 9.72656 15.1279 9.72656C18.3593 9.72659 20.5463 11.1588 21.6943 14.0234C22.4279 12.6953 23.3726 11.645 24.5293 10.8789C25.6859 10.1108 26.9877 9.72662 28.4307 9.72656C30.8613 9.72656 32.7067 10.5423 33.9697 12.1699C35.2283 13.7954 35.8574 16.1699 35.8574 19.2861V20.5928C35.8575 21.0743 35.9199 21.5603 36.0479 22.0527C36.1694 22.5475 36.315 23.0295 36.4756 23.4961L36.4775 23.4912C36.6359 23.962 36.7814 24.3986 36.9072 24.7979C37.0331 25.2014 37.0947 25.5619 37.0947 25.8809C37.0947 26.6382 36.682 27.0156 35.8574 27.0156H29.1904C28.3658 27.0156 27.9512 26.6382 27.9512 25.8809V17.8711C27.9512 15.0065 27.2283 13.5742 25.7852 13.5742C24.8457 13.5744 24.101 14.0801 23.5498 15.0869C23.0009 16.0981 22.6102 17.5129 22.5537 19.3506V20.5879C22.5537 21.0697 22.6171 21.5562 22.7451 22.0488C22.8666 22.5434 23.0123 23.0248 23.1729 23.4912C23.3312 23.9621 23.4767 24.3986 23.6025 24.7979C23.7284 25.2014 23.789 25.5619 23.7891 25.8809C23.7891 26.6383 23.3764 27.0156 22.5518 27.0156H16.417C15.5923 27.0156 15.1777 26.6383 15.1777 25.8809V17.8711C15.1777 15.0066 13.9235 13.5744 12.4805 13.5742C11.4475 13.5742 10.6442 14.188 10.0713 15.4141C9.50054 16.6402 9.21192 18.3657 9.21191 20.5879C9.21191 21.0697 9.27745 21.5562 9.40332 22.0488C9.52912 22.5433 9.6696 23.0249 9.83008 23.4912C9.99062 23.962 10.1339 24.3986 10.2598 24.7979C10.3856 25.2014 10.4511 25.5619 10.4512 25.8809C10.4512 26.6383 10.0366 27.0156 9.21191 27.0156H1.30371C0.479123 27.0156 0.0664062 26.6382 0.0664062 25.8809C0.0664315 25.5619 0.128062 25.2014 0.253906 24.7979C0.379747 24.3986 0.522837 23.962 0.685547 23.4912C0.843883 23.0248 0.987467 22.5434 1.11328 22.0488C1.23915 21.5562 1.30371 21.0697 1.30371 20.5879V17.8389C1.30371 17.2877 1.23435 16.7795 1.09766 16.3086C0.960935 15.8377 0.813154 15.3922 0.650391 14.9668C0.489868 14.546 0.342724 14.1421 0.206055 13.7646C0.0693802 13.3871 7.64136e-07 13.0379 0 12.7168C0 11.5471 0.247373 10.8376 1.71875 10.6553C5.8309 10.1431 6.90713 9.08376 7.34766 8.61719ZM126.506 11.8291C126.028 11.8291 125.581 11.9942 125.171 12.3262C124.756 12.6582 124.407 13.1186 124.12 13.7002C123.838 14.2839 123.604 14.9785 123.431 15.7812C123.255 16.5841 123.17 17.4541 123.17 18.3936C123.17 19.3332 123.257 20.2039 123.431 21.0068C123.604 21.8076 123.836 22.5022 124.12 23.0859C124.407 23.6697 124.756 24.1299 125.171 24.4619C125.583 24.7939 126.028 24.9609 126.506 24.9609C126.983 24.9608 127.426 24.7916 127.84 24.4619C128.252 24.1299 128.607 23.6697 128.889 23.0859C129.175 22.5 129.405 21.8076 129.578 21.0068C129.754 20.2039 129.843 19.3332 129.843 18.3936C129.843 17.4541 129.752 16.5841 129.578 15.7812C129.405 14.9785 129.175 14.2839 128.889 13.7002C128.604 13.1186 128.25 12.6582 127.84 12.3262C127.426 11.9943 126.983 11.8292 126.506 11.8291ZM162.678 12.8857C160.694 12.3823 157.663 14.1902 157.374 18.3936C157.231 20.4813 158.3 24.3096 160.794 24.3096C163.967 24.3096 164.82 19.8107 164.924 18.3936C165.039 16.7962 165.015 13.4781 162.678 12.8857ZM49.7793 18.4375C49.7793 17.589 48.9565 17.8671 48.249 17.9951C47.5457 18.1232 45.3584 18.8393 45.3584 21.2676C45.3585 22.0316 45.797 23.7909 47.3223 23.791C49.2624 23.791 49.7812 22.4325 49.7812 21.7793H49.7793V18.4375ZM103.94 11.7559C103.315 11.7559 102.801 12.2331 102.391 13.1836V13.1816C101.981 14.1321 101.776 15.3624 101.776 16.877C101.776 18.3916 101.981 19.6285 102.391 20.5898C102.801 21.5512 103.315 22.0332 103.94 22.0332C104.489 22.0329 104.964 21.5531 105.374 20.5898C105.784 19.6263 105.988 18.3635 105.988 16.877C105.988 15.3904 105.784 14.1618 105.374 13.1982C104.964 12.2374 104.489 11.7561 103.94 11.7559ZM86.9219 0C87.4729 5.66805e-05 87.9871 0.101522 88.4688 0.307617C88.9503 0.513705 89.3668 0.7937 89.7227 1.14941C90.0764 1.50532 90.3612 1.92448 90.5674 2.40625C90.7714 2.88803 90.875 3.40722 90.875 3.9541C90.8749 4.50073 90.7713 5.01266 90.5674 5.4834C90.3612 5.95433 90.0786 6.37152 89.7227 6.73828C89.3668 7.10486 88.9504 7.39373 88.4688 7.59766C87.9871 7.80373 87.4729 7.90717 86.9219 7.90723C86.3707 7.90723 85.8558 7.80381 85.374 7.59766C84.8924 7.39373 84.4716 7.10487 84.1201 6.73828C83.762 6.37152 83.4816 5.95433 83.2754 5.4834C83.0715 5.01484 82.9678 4.50506 82.9678 3.9541C82.9678 3.40288 83.0714 2.88803 83.2754 2.40625C83.4816 1.92447 83.762 1.50532 84.1201 1.14941C84.4738 0.793687 84.8924 0.51371 85.374 0.307617C85.8558 0.0992806 86.3707 0 86.9219 0Z" fill="white"/>
</svg>
