<svg width="20" height="20" viewBox="0 0 20 20" fill="none" xmlns="http://www.w3.org/2000/svg">
<path d="M18.9 5.90002V13.9C18.9 15.2261 18.3732 16.4979 17.4356 17.4356C16.4979 18.3732 15.2261 18.9 13.9 18.9H5.90002C4.57394 18.9 3.30217 18.3732 2.36449 17.4356C1.42681 16.4979 0.900024 15.2261 0.900024 13.9V5.90002C0.900024 4.57394 1.42681 3.30217 2.36449 2.36449C3.30217 1.42681 4.57394 0.900024 5.90002 0.900024H13.9C15.2261 0.900024 16.4979 1.42681 17.4356 2.36449C18.3732 3.30217 18.9 4.57394 18.9 5.90002Z" stroke="white" stroke-width="1.8" stroke-linecap="round" stroke-linejoin="round"/>
<path d="M7.90003 9.90002C7.30668 9.90002 6.72666 10.076 6.23331 10.4056C5.73997 10.7353 5.35545 11.2038 5.12839 11.752C4.90132 12.3002 4.84191 12.9034 4.95767 13.4853C5.07343 14.0672 5.35915 14.6018 5.77871 15.0213C6.19826 15.4409 6.73281 15.7266 7.31475 15.8424C7.8967 15.9581 8.4999 15.8987 9.04808 15.6717C9.59625 15.4446 10.0648 15.0601 10.3944 14.5667C10.7241 14.0734 10.9 13.4934 10.9 12.9V3.90002C11.233 4.90002 12.5 6.90002 14.9 6.90002" stroke="white" stroke-width="2" stroke-linecap="round" stroke-linejoin="round"/>
</svg>
