<svg width="16" height="16" viewBox="0 0 16 16" fill="none" xmlns="http://www.w3.org/2000/svg">
<path d="M13.6038 0.152046C13.7912 -0.0506072 14.095 -0.0504564 14.2825 0.152046C14.47 0.354775 14.47 0.683692 14.2825 0.886421L8.23364 7.42548L14.969 14.7087C15.1565 14.9114 15.1565 15.2403 14.969 15.4431C14.7816 15.6457 14.4778 15.6456 14.2903 15.4431L7.55396 8.15986L0.81958 15.4431C0.632099 15.6457 0.328339 15.6457 0.140869 15.4431C-0.0466289 15.2403 -0.0466289 14.9114 0.140869 14.7087L6.87524 7.42646L0.826416 0.886421C0.639072 0.683745 0.63912 0.354755 0.826416 0.152046C1.01391 -0.0506829 1.31861 -0.0506829 1.5061 0.152046L7.55493 6.69209L13.6038 0.152046Z" fill="white"/>
</svg>
