<svg width="104" height="105" viewBox="0 0 104 105" fill="none" xmlns="http://www.w3.org/2000/svg">
<path d="M55.1182 104.52L50.3613 104.66L45.4639 91.7246L48.5098 91.6309L49.6816 94.8408L55.1416 94.6768H55.165L56.1025 91.3965L59.0322 91.3027L55.1182 104.52ZM35.5977 88.9824C36.6755 88.8185 37.847 88.9357 39.0889 89.334C40.1903 89.6855 41.128 90.1778 41.8311 90.8105V90.834C42.5574 91.4666 43.0733 92.1926 43.4248 92.9893C43.7529 93.786 43.9639 94.6066 43.9639 95.4502C43.9873 96.2938 43.8701 97.0909 43.6357 97.8643L43.5186 98.2393C43.2608 99.0124 42.8855 99.7385 42.3936 100.418C41.9014 101.074 41.2919 101.637 40.5654 102.082C39.839 102.527 39.0184 102.809 38.1045 102.926C37.2141 103.043 36.2302 102.926 35.1992 102.598C34.0744 102.246 33.1366 101.707 32.4102 101.027C31.6604 100.324 31.1445 99.528 30.8633 98.6377C30.5821 97.7472 30.5352 96.786 30.7695 95.8018L33.582 96.6924C33.5117 97.1611 33.5586 97.6065 33.7461 98.0518C33.9336 98.4735 34.215 98.8722 34.6133 99.2002C34.9882 99.5282 35.4807 99.7862 36.043 99.9736C36.5816 100.138 37.097 100.184 37.5889 100.138C38.0808 100.091 38.5265 99.9266 38.9482 99.6689C39.37 99.4112 39.7218 99.0828 40.0264 98.6377C40.331 98.2159 40.5655 97.7001 40.7529 97.1143C40.9404 96.505 41.0342 95.9189 41.0342 95.3799C41.0107 94.8175 40.917 94.3251 40.7061 93.8564C40.5186 93.4113 40.2137 93.0126 39.792 92.6611C39.3702 92.3097 38.8777 92.0517 38.292 91.8643C37.4956 91.6067 36.7926 91.5597 36.1133 91.7002C35.6916 91.7939 35.3163 91.9816 34.9883 92.1924L34.6602 93.2002L37.917 94.2314L37.2842 96.2471L30.418 94.0674L31.0508 92.0518L32.082 92.3799L32.7617 90.2715C33.5585 89.5684 34.5197 89.1465 35.5977 88.9824ZM50.5488 97.2783L52.3535 102.199H53.0098L54.4316 97.1611L50.5488 97.2783ZM72.8818 85.2803L78.7412 97.1143L76.2568 98.333L74.124 99.3877C73.1398 99.8798 72.2255 100.138 71.3584 100.208C70.4916 100.278 69.7419 100.114 69.0625 99.7158C68.3829 99.3409 67.8437 98.6845 67.3984 97.8174L67.2812 97.5596C66.836 96.6925 66.6719 95.872 66.7891 95.0986C66.9063 94.3489 67.2346 93.6697 67.7969 93.0371L62.7109 90.3184L65.7578 88.8184L70.1875 91.3027L72.1084 90.3418L70.2578 86.5684L72.8818 85.2568V85.2803ZM70.9365 93.4824C70.5384 93.6699 70.2577 93.9045 70.0469 94.209C69.8361 94.5135 69.7188 94.8411 69.7188 95.1924C69.6953 95.5439 69.7891 95.919 69.9766 96.2939C70.164 96.6687 70.3977 96.9502 70.7021 97.1611C71.0067 97.372 71.3351 97.4892 71.6865 97.4893C72.0614 97.5127 72.4366 97.4189 72.8115 97.2314L72.7881 97.2549L74.9678 96.1768L73.1162 92.4043L70.9365 93.4824ZM24.208 81.2021L23.083 84.4131L27.4189 87.7412L30.207 85.7959V85.8428L32.5508 87.624L21.1377 95.3809L17.3652 92.4746L21.7939 79.3516L24.208 81.2021ZM89.3564 88.0459L87.5283 89.7559L83.4277 93.5762L81.7637 91.7715L85.584 88.209L83.709 86.1709L80.0762 89.5449L78.4131 87.7646L82.0449 84.3896L80.0059 82.1865L76.0693 85.8428L74.4053 84.0615L78.3428 80.4053L80.4512 78.4609L89.3564 88.0459ZM20.4814 91.7949L20.9971 92.1934L25.3096 89.1934H25.333L22.2393 86.8271L20.4814 91.7949ZM20.1074 76.5391L11.624 87.2715L9.88965 84.7881L16.9434 76.1641L16.5918 75.6719L6.18652 79.4209L4.5 77.0078L17.3887 72.6016L20.1074 76.5391ZM86.9434 68.4766L98.332 75.3203L97.043 77.4756L95.8018 79.5381C95.0284 80.827 94.161 81.6475 93.2002 82.0225C92.2394 82.3974 91.2548 82.2802 90.2471 81.6709L90.0127 81.5303C89.3097 81.1085 88.8642 80.5927 88.6533 79.9834C88.5362 79.7022 88.4893 79.3974 88.4893 79.0928C88.0442 79.3973 87.5993 79.6318 87.1074 79.7021C86.4747 79.8193 85.8182 79.6318 85.0918 79.21L84.8809 79.0693C84.2247 78.6709 83.7324 78.1552 83.4512 77.5693C83.1701 76.9602 83.0529 76.3043 83.1699 75.5547C83.2871 74.8048 83.5919 74.0077 84.1309 73.1172L85.6309 70.6094L86.9199 68.4531L86.9434 68.4766ZM90.9502 76.8428C90.669 77.3114 90.5753 77.7335 90.6924 78.1084C90.8095 78.4599 91.0909 78.7647 91.4893 79.0225C91.9345 79.2802 92.3331 79.374 92.708 79.3037C93.0829 79.2334 93.4346 78.9755 93.7158 78.4834H93.6924L94.8408 76.585L92.0986 74.9453L90.9502 76.8428ZM85.9824 74.3828C85.7247 74.8515 85.6309 75.297 85.7246 75.6719C85.8419 76.0466 86.1233 76.3742 86.5684 76.6553C87.0136 76.9365 87.4356 77.0303 87.8105 76.9365L87.7871 76.9131C88.1853 76.8192 88.5129 76.5378 88.7939 76.0693L90.2002 73.75L87.3887 72.0625L85.9824 74.3828ZM14.1777 65.7588L14.9512 68.1484L2.50781 72.1797L1.73438 69.7891L0 64.4697L2.32031 63.7197L3.9375 68.6875L6.58496 67.8438L5.06152 63.1338L7.38184 62.3838L8.90527 67.0947L11.7412 66.1572L10.1006 61.0713L12.4209 60.3213L14.1777 65.7588ZM102.457 62.0566L101.824 64.4932L100.395 69.9072L98.0273 69.2744L99.3867 64.2119L96.6914 63.5088L95.4258 68.29L93.0596 67.6572L94.3242 62.877L91.4424 62.1035L90.0596 67.3057L87.7158 66.6729L89.0752 61.4941L89.8018 58.7051L102.457 62.0566ZM102.316 40.8945L91.9111 44.4092L91.958 44.8779L102.316 45.6982L102.363 46.1436L102.621 48.6982L92.6846 51.9092L92.708 52.3535L103.581 53.3848L103.886 56.2441L90.5518 54.7207L90.1064 50.1748L97.7695 47.6436L89.7549 46.8701L89.3096 42.418L102.012 37.8711L102.316 40.8945ZM7.87402 47.5967C9.37385 47.5967 10.5693 48.7922 10.5693 50.292C10.5693 51.7918 9.37381 52.9873 7.87402 52.9873C6.37432 52.9872 5.17974 51.7683 5.17969 50.292C5.17969 48.7922 6.37429 47.5968 7.87402 47.5967ZM14.6699 37.6602L13.7324 40.4492L3.74902 37.0283L2.92969 39.4648L0.515625 38.6445L2.27344 33.4424L14.6699 37.6602ZM94.6299 23.7168L97.4414 28.1455L95.3799 29.4346L92.5674 25.0059L90.2236 26.5059L92.8721 30.6768L90.8096 31.9893L88.1611 27.7939L85.6309 29.4111L88.4893 33.9346L86.4277 35.2471L83.3809 30.3955L82.0215 28.2861L93.1064 21.2793L94.6299 23.7168ZM9.81934 20.834C10.7567 20.4357 11.7648 20.3418 12.7959 20.5293C13.8268 20.7168 14.8577 21.1623 15.8418 21.8184L16.6855 22.3809C17.412 22.873 18.0215 23.4122 18.5371 24.0215C19.0526 24.6542 19.4278 25.3107 19.6621 26.0137C19.8963 26.7399 19.9433 27.4896 19.8262 28.2861C19.709 29.1063 19.3573 29.9269 18.7715 30.7939C18.1856 31.661 17.5527 32.3174 16.8496 32.7393C16.1466 33.161 15.4432 33.419 14.6934 33.4658C13.9671 33.536 13.2174 33.4188 12.4443 33.1846C11.6711 32.9502 10.9442 32.5751 10.2178 32.1064L9.37402 31.5439V31.4971C8.38976 30.8409 7.59271 30.0673 7.03027 29.1768C6.46802 28.2864 6.18661 27.3258 6.18652 26.2949C6.18652 25.2638 6.53824 24.1854 7.28809 23.084C8.01456 21.9825 8.85851 21.2324 9.81934 20.834ZM11.5303 23.4355C10.7101 23.459 10.0302 23.8809 9.51465 24.6543L9.53809 24.6777C8.99925 25.4978 8.88206 26.2708 9.16309 27.0439C9.4443 27.8173 10.1945 28.6144 11.4365 29.4346C12.6315 30.2312 13.6389 30.6064 14.459 30.6064C15.2792 30.583 15.9825 30.1845 16.5215 29.3643C17.0604 28.5441 17.1777 27.7704 16.873 26.9971C16.5683 26.2239 15.818 25.4509 14.6465 24.6543C13.3812 23.8108 12.3504 23.4122 11.5303 23.4355ZM82.8652 10.9209L77.7334 16.8975C77.3586 17.3426 77.1006 17.7873 77.0068 18.2559C76.9131 18.7245 76.9366 19.17 77.1006 19.6152C77.2646 20.0605 77.5928 20.459 78.0381 20.8574C78.5066 21.2556 78.9514 21.5136 79.4199 21.6074C79.8651 21.7011 80.3107 21.6776 80.7559 21.4902C81.1777 21.3028 81.5997 20.998 81.9746 20.5527L87.1064 14.5771L89.333 16.499L84.2715 22.4043C83.5216 23.2714 82.7011 23.9043 81.8105 24.2559C80.9201 24.6073 80.0057 24.7011 79.0684 24.4902C78.1311 24.2793 77.1706 23.7868 76.2334 22.9668V22.9434C75.296 22.1466 74.663 21.3026 74.3115 20.3887C73.9835 19.4748 73.9131 18.5604 74.124 17.623C74.335 16.6858 74.8274 15.7956 75.5771 14.9053L80.6387 8.99902L82.8652 10.9209ZM22.3096 9.16406C23.3407 9.09376 24.3253 9.32818 25.2393 9.84375C26.1531 10.3593 26.9738 11.0852 27.7002 12.0459L28.3096 12.8662C28.8251 13.5458 29.2461 14.2726 29.5273 15.0225C29.832 15.7724 29.9492 16.5225 29.9492 17.2725C29.9492 18.0222 29.7381 18.7483 29.3633 19.4746C28.9884 20.1776 28.3796 20.8576 27.5596 21.4902C26.7394 22.123 25.9188 22.5215 25.1221 22.709C24.3253 22.8965 23.5751 22.8965 22.8486 22.709C22.1457 22.5215 21.4423 22.1933 20.8096 21.7012C20.177 21.2091 19.5916 20.6228 19.0762 19.9434L18.4668 19.123L18.4199 19.0996C17.717 18.1389 17.2246 17.155 16.9668 16.124C16.7324 15.0929 16.7793 14.1083 17.1074 13.124C17.4355 12.1398 18.1389 11.2489 19.1934 10.4521C20.2477 9.65565 21.2787 9.23441 22.3096 9.16406ZM23.1768 12.1396C22.3801 11.882 21.6063 12.0695 20.8564 12.6318L20.8799 12.6084C20.1067 13.1942 19.7559 13.8976 19.7559 14.7178C19.7793 15.538 20.2472 16.5461 21.1377 17.7178C22.0047 18.866 22.8254 19.5683 23.6221 19.8262C24.3954 20.084 25.1925 19.9199 25.9658 19.334C26.7388 18.7482 27.0907 18.0456 27.0674 17.2256C27.0439 16.4054 26.5985 15.4207 25.7314 14.2959C24.8175 13.1007 23.9735 12.3974 23.1768 12.1396ZM72.1084 4.64062L67.75 14.2012L72.4131 16.334L71.335 18.6777L66.3438 16.4043L64 15.3262L69.4375 3.42188L72.1084 4.64062ZM38.7607 15.2334L36.4414 15.9131L37.2852 1.99316L39.5811 1.31348L38.7607 15.2334ZM42.0654 6.75C42.745 6.53909 43.3311 6.51564 43.8701 6.67969C44.3856 6.84374 44.8546 7.12512 45.2295 7.57031C45.6043 7.9921 45.9083 8.55493 46.0957 9.21094L46.2363 9.65625C46.4003 10.2888 46.4706 10.8743 46.4004 11.46V11.4834C46.3301 12.0457 46.1199 12.5382 45.7686 12.9834C45.4171 13.4286 44.8777 13.7334 44.1982 13.9443C43.5187 14.1318 42.9091 14.1552 42.3701 13.9912C41.8311 13.8272 41.3857 13.5224 41.0107 13.0771C40.6358 12.6319 40.3545 12.0927 40.167 11.4834L40.0264 11.0381C39.839 10.3822 39.7687 9.74972 39.8389 9.1875C39.9326 8.60173 40.1437 8.10928 40.5186 7.6875C40.8935 7.26568 41.4093 6.93748 42.0654 6.75ZM57.1338 0.445312L59.1494 0.75C60.6256 0.984335 61.7267 1.47678 62.4297 2.22656C63.1327 2.97648 63.414 3.93763 63.2266 5.08594L63.1797 5.34375C63.0391 6.14032 62.7577 6.74915 62.2656 7.1709C62.0548 7.35825 61.7976 7.5225 61.5166 7.63965C61.9617 7.92077 62.336 8.24929 62.5938 8.6709C62.9218 9.2099 63.0156 9.91318 62.8984 10.7334L62.9219 10.7803L62.875 11.0381C62.7578 11.8114 62.4765 12.4444 62.0312 12.9365C61.5861 13.4284 61.0006 13.7569 60.2744 13.9443C59.5479 14.1318 58.6571 14.1552 57.6494 13.9912L55.1182 13.5928L52.2832 13.1475L54.2979 0L57.1338 0.445312ZM43.542 8.71875C43.2842 8.53127 43.0029 8.48439 42.6514 8.57812C42.2999 8.6953 42.0654 8.88285 41.9717 9.1875C41.8547 9.46873 41.9016 9.9605 42.1123 10.6396C42.2998 11.2958 42.5108 11.7178 42.7686 11.9287C43.0263 12.1396 43.3311 12.1865 43.6826 12.0928C44.034 11.999 44.2452 11.788 44.3389 11.4834H44.3623C44.4559 11.1787 44.4091 10.6862 44.2217 10.0537C44.0109 9.35116 43.7762 8.90634 43.542 8.71875ZM55.4932 11.2725L58.165 11.6943C58.704 11.7881 59.1495 11.6943 59.4541 11.46C59.7587 11.2022 59.9697 10.8271 60.04 10.3115V10.335C60.1103 9.81942 60.04 9.39741 59.8057 9.06934C59.5948 8.74127 59.1962 8.5537 58.6572 8.45996L55.9854 8.03809L55.4932 11.2725ZM31.7539 3.30469C32.4101 3.09378 33.0196 3.09377 33.5586 3.23438C34.0976 3.39842 34.5665 3.67974 34.9414 4.125C35.2694 4.51449 35.5434 4.97579 35.7324 5.52441L35.9492 6.21094C36.1132 6.84357 36.1836 7.42984 36.1133 8.01562C36.0429 8.60117 35.8318 9.09301 35.4805 9.53809C35.129 9.98333 34.5897 10.2881 33.9102 10.499C33.2305 10.7099 32.621 10.7099 32.082 10.5459C31.5431 10.3818 31.0741 10.077 30.6992 9.63184C30.3245 9.18672 30.0429 8.64808 29.8555 8.03906L29.832 7.99219L29.6914 7.54688C29.5274 6.91423 29.4571 6.28113 29.5273 5.71875C29.5976 5.13298 29.8322 4.64053 30.207 4.21875C30.582 3.79696 31.0978 3.49217 31.7539 3.30469ZM33.1836 5.29688C32.9258 5.1094 32.6445 5.06251 32.293 5.15625C31.965 5.25001 31.7304 5.46103 31.6367 5.76562L31.6602 5.74219C31.5431 6.04686 31.6134 6.53931 31.8008 7.19531C31.9882 7.85106 32.1994 8.27243 32.457 8.4834C32.7148 8.69431 32.9961 8.7412 33.3477 8.64746C33.699 8.55375 33.9101 8.34348 34.0039 8.03906C34.0976 7.73445 34.0507 7.24198 33.8633 6.60938C33.6524 5.9298 33.4414 5.5078 33.1836 5.29688ZM56.3135 5.83594L58.5166 6.16406C59.0555 6.25775 59.501 6.16396 59.7822 5.92969C60.0634 5.67196 60.251 5.32012 60.3213 4.85156C60.3916 4.35956 60.3446 3.96085 60.1338 3.63281C59.9229 3.30475 59.5477 3.11719 58.9854 3.02344L59.0088 3L56.8057 2.67188L56.3135 5.83594Z" fill="#F57E20"/>
</svg>
