<svg width="22" height="22" viewBox="0 0 22 22" fill="none" xmlns="http://www.w3.org/2000/svg">
<path d="M20.9 6.45546V15.3443C20.9 16.8178 20.3147 18.2308 19.2728 19.2727C18.231 20.3146 16.8179 20.8999 15.3445 20.8999H6.45558C4.98216 20.8999 3.56908 20.3146 2.52721 19.2727C1.48534 18.2308 0.900024 16.8178 0.900024 15.3443V6.45546C0.900024 4.98203 1.48534 3.56896 2.52721 2.52709C3.56908 1.48522 4.98216 0.899902 6.45558 0.899902H15.3445C16.8179 0.899902 18.231 1.48522 19.2728 2.52709C20.3147 3.56896 20.9 4.98203 20.9 6.45546Z" stroke="#F87C04" stroke-width="1.8" stroke-linecap="round" stroke-linejoin="round"/>
<path d="M8.67782 10.9001C8.01855 10.9001 7.37408 11.0956 6.82592 11.4618C6.27775 11.8281 5.85051 12.3487 5.59822 12.9578C5.34593 13.5669 5.27992 14.2371 5.40853 14.8837C5.53715 15.5303 5.85462 16.1242 6.32079 16.5904C6.78697 17.0566 7.38091 17.3741 8.02752 17.5027C8.67412 17.6313 9.34434 17.5653 9.95343 17.313C10.5625 17.0607 11.0831 16.6335 11.4494 16.0853C11.8157 15.5371 12.0112 14.8927 12.0112 14.2334V4.2334C12.3812 5.34451 13.7889 7.56673 16.4556 7.56673" stroke="#F87C04" stroke-width="2" stroke-linecap="round" stroke-linejoin="round"/>
</svg>
