<svg width="20" height="20" viewBox="0 0 20 20" fill="none" xmlns="http://www.w3.org/2000/svg">
<path d="M18.9 5.89999V13.9C18.9 15.2261 18.3732 16.4978 17.4355 17.4355C16.4979 18.3732 15.2261 18.9 13.9 18.9H5.9C4.57392 18.9 3.30215 18.3732 2.36447 17.4355C1.42678 16.4978 0.9 15.2261 0.9 13.9V5.89999C0.9 4.57391 1.42678 3.30214 2.36447 2.36446C3.30215 1.42678 4.57392 0.899994 5.9 0.899994H13.9C15.2261 0.899994 16.4979 1.42678 17.4355 2.36446C18.3732 3.30214 18.9 4.57391 18.9 5.89999Z" stroke="#F87C04" stroke-width="1.8" stroke-linecap="round" stroke-linejoin="round"/>
<path d="M7.9 9.89999C7.30666 9.89999 6.72664 10.0759 6.23329 10.4056C5.73994 10.7352 5.35542 11.2038 5.12836 11.7519C4.9013 12.3001 4.84189 12.9033 4.95764 13.4853C5.0734 14.0672 5.35912 14.6018 5.77868 15.0213C6.19824 15.4409 6.73279 15.7266 7.31473 15.8424C7.89667 15.9581 8.49987 15.8987 9.04805 15.6716C9.59623 15.4446 10.0648 15.0601 10.3944 14.5667C10.7241 14.0734 10.9 13.4933 10.9 12.9V3.89999C11.233 4.89999 12.5 6.89999 14.9 6.89999" stroke="#F87C04" stroke-width="2" stroke-linecap="round" stroke-linejoin="round"/>
</svg>
